<svg width="163" height="164" viewBox="0 0 163 164" fill="none" xmlns="http://www.w3.org/2000/svg">
<path d="M119.763 83.4692C119.453 82.5462 118.566 81.9295 117.602 81.949L57.0895 83.174C56.1482 83.193 55.3089 83.8219 54.992 84.7803C54.8246 85.3729 54.5109 86.4898 54.2059 88.0372C53.464 87.9389 52.6782 87.8868 51.8713 87.9031C45.6407 88.0292 41.3822 92.535 41.5106 98.8785C41.639 105.222 45.6881 109.197 51.8066 109.073C53.2186 109.044 54.6045 108.835 55.7186 108.495C56.8765 111.418 58.499 114.037 60.5409 116.33C69.1902 126.037 82.1221 125.775 86.358 125.689C87.4786 125.667 88.5096 125.646 89.3827 125.583C95.7446 125.295 107.572 124.739 115.496 115.218C126.154 102.333 120.096 84.4143 119.763 83.4692ZM52.191 104.804C48.493 104.879 46.318 102.657 46.2377 98.6921C46.1575 94.7275 48.282 92.2367 52.0472 92.1605C52.6075 92.1491 53.1239 92.184 53.6188 92.2647C53.3253 95.489 53.3022 99.8863 54.4268 104.487C53.7581 104.682 52.9755 104.788 52.191 104.804ZM63.887 113.271C55.9718 104.388 57.7898 92.2936 58.8621 87.671L116.013 86.5141C116.474 88.2499 117.237 91.5662 117.317 95.5308C117.423 100.764 116.362 107.064 112.028 112.296C105.375 120.318 95.2495 120.772 89.2014 121.054C83.0188 121.337 71.5044 121.842 63.887 113.271Z" fill="#FFAF18"/>
<path d="M85.0063 73.3165C83.9823 75.8983 83.0799 77.843 80.347 79.0769C79.2019 79.4236 77.9781 78.8617 77.4946 77.7674L77.0772 76.8226C76.893 76.4057 77.0821 75.9185 77.4992 75.7349C79.2761 74.9057 80.6825 73.4946 81.3662 71.8263C82.0056 70.1815 81.8084 68.191 80.9072 66.8721C80.2837 65.9781 79.304 65.2047 78.3695 64.453C76.6148 63.0607 74.5871 61.4699 74.0834 58.7377C73.8816 57.6312 74.0165 56.5406 74.515 55.6919C75.014 54.8659 75.722 54.3983 76.098 54.1413L79.3218 51.8919C79.6644 51.6528 80.1364 51.7406 80.3701 52.0868C81.3641 53.5591 80.9884 55.5571 79.5275 56.5677L78.3165 57.4054C78.0956 57.5686 77.941 57.685 77.8747 57.7317C77.9195 57.7308 77.8994 57.8445 77.9255 58.0253C78.1744 59.2441 79.4048 60.2165 80.8177 61.3438C82.0262 62.3392 83.2114 63.2898 84.1125 64.6087C85.799 67.0677 86.1354 70.3926 85.0063 73.3165Z" fill="#FFAF18"/>
<path d="M99.8712 75.5317C96.3847 78.2994 93.6023 79.3076 89.3344 80.0286L89.0006 80.0538C87.7962 80.1447 86.7222 79.2997 86.5271 78.1077L86.368 77.1359C86.2926 76.675 86.5996 76.2385 87.0588 76.1537C90.5445 75.5619 94.4963 74.7339 97.4537 72.4076C99.881 70.4773 101.715 66.9499 100.488 63.915C99.4501 61.3749 96.6846 59.8897 93.7385 58.3402C93.013 57.9469 92.2876 57.5536 91.5846 57.1599C87.2744 54.6861 86.4331 51.8927 86.4838 49.9652C86.5637 47.2665 88.4073 45.3027 90.0159 43.9103C92.5498 41.7059 95.3366 39.8136 98.31 38.2803C98.7268 38.0715 99.2339 38.2402 99.4427 38.657L99.6567 39.0842C100.295 40.3593 99.7143 41.9085 98.3944 42.4488C95.7091 43.8177 94.879 44.8997 92.5875 46.8953C91.6623 47.7073 90.431 48.9107 90.4101 50.0897C90.3534 51.7227 92.5577 53.1739 93.5329 53.7208C94.1906 54.0928 94.8708 54.4643 95.5729 54.8127C98.9957 56.6473 102.554 58.5244 104.112 62.4138C106.072 67.2697 103.468 72.6938 99.8712 75.5317Z" fill="#FFAF18"/>
</svg>
